<svg width="41" height="40" viewBox="0 0 41 40" fill="none" xmlns="http://www.w3.org/2000/svg">
<rect x="0.779907" width="39.9978" height="40" rx="11.1111" fill="#0156FE"/>
<g clip-path="url(#clip0_192_232)">
<path d="M18.6367 19.2649C18.6367 19.2649 20.7391 19.1108 20.7391 16.6774C20.7391 14.2438 19.0191 13.0562 16.8404 13.0562H9.6709V26.6554H16.8404C16.8404 26.6554 21.217 26.7919 21.217 22.6415C21.217 22.6416 21.4079 19.2649 18.6367 19.2649ZM16.3243 15.4733H16.8404C16.8404 15.4733 17.8149 15.4733 17.8149 16.8882C17.8149 18.303 17.2418 18.5081 16.5917 18.5081H12.8298V15.4733H16.3243ZM16.6378 24.2384H12.8298V20.6041H16.8404C16.8404 20.6041 18.2929 20.5854 18.2929 22.4718C18.2929 24.0624 17.208 24.2264 16.6378 24.2384ZM27.0541 16.5162C21.7557 16.5162 21.7604 21.7415 21.7604 21.7415C21.7604 21.7415 21.3968 26.9399 27.0541 26.9399C27.0541 26.9399 31.7685 27.2057 31.7685 23.3236H29.3439C29.3439 23.3236 29.4248 24.7856 27.135 24.7856C27.135 24.7856 24.7101 24.946 24.7101 22.4196H31.8493C31.8493 22.4195 32.6305 16.5162 27.0541 16.5162ZM24.6834 20.6041C24.6834 20.6041 24.9795 18.5081 27.108 18.5081C29.236 18.5081 29.2094 20.6041 29.2094 20.6041H24.6834ZM29.7742 15.532H24.0898V13.8573H29.7742V15.532Z" fill="white"/>
</g>
<defs>
<clipPath id="clip0_192_232">
<rect width="22.22" height="13.8875" fill="white" transform="translate(9.66882 13.0562)"/>
</clipPath>
</defs>
</svg>
