<svg width="378" height="238" viewBox="0 0 378 238" fill="none" xmlns="http://www.w3.org/2000/svg">
<mask id="mask0_196_6167" style="mask-type:alpha" maskUnits="userSpaceOnUse" x="0" y="0" width="378" height="238">
<rect width="378" height="238" fill="#D9D9D9"/>
</mask>
<g mask="url(#mask0_196_6167)">
<path d="M246.795 4.51514H135.361C133.937 4.51514 132.785 5.67434 132.785 7.09114V13.5455V77.8525C132.785 79.2765 133.937 80.4285 135.369 80.4285H246.802C247.36 80.4285 247.876 80.2497 248.298 79.9491C248.663 79.6915 248.949 79.3409 249.142 78.933C249.292 78.6039 249.378 78.2389 249.378 77.8525V13.5455V7.0983C249.378 5.67434 248.226 4.52229 246.802 4.52229L246.795 4.51514Z" stroke="#3AA655" stroke-width="2" stroke-miterlimit="10"/>
<path d="M129.78 73.3374C129.78 74.7614 130.918 75.9134 132.327 75.9134H242.273C242.824 75.9134 243.332 75.7345 243.754 75.434C244.112 75.1764 244.398 74.8258 244.584 74.4179C244.734 74.0887 244.82 73.7238 244.82 73.3374V9.03033H129.78V73.3374Z" stroke="#3AA655" stroke-width="2" stroke-miterlimit="10"/>
<path d="M243.017 0H131.576C130.152 0 129 1.1592 129 2.576V9.03033H245.6V2.576C245.6 1.15205 244.448 0 243.024 0H243.017Z" fill="#3AA655"/>
<path d="M135.347 6.09624C136.22 6.09624 136.928 5.3883 136.928 4.51501C136.928 3.64172 136.22 2.93378 135.347 2.93378C134.474 2.93378 133.766 3.64172 133.766 4.51501C133.766 5.3883 134.474 6.09624 135.347 6.09624Z" fill="#EFEFEF"/>
<path d="M140.227 6.09624C141.1 6.09624 141.808 5.3883 141.808 4.51501C141.808 3.64172 141.1 2.93378 140.227 2.93378C139.354 2.93378 138.646 3.64172 138.646 4.51501C138.646 5.3883 139.354 6.09624 140.227 6.09624Z" fill="#EFEFEF"/>
<path d="M145.107 2.93378C144.234 2.93378 143.526 3.64211 143.526 4.51501C143.526 5.3879 144.234 6.09624 145.107 6.09624C145.98 6.09624 146.688 5.3879 146.688 4.51501C146.688 3.64211 145.98 2.93378 145.107 2.93378Z" fill="#EFEFEF"/>
<path d="M181.465 16.9444H181.193V66.9761H181.465V16.9444Z" fill="#3AA655"/>
<path d="M194.538 16.9444H194.266V66.9761H194.538V16.9444Z" fill="#3AA655"/>
<path d="M207.611 16.9444H207.339V66.9761H207.611V16.9444Z" fill="#3AA655"/>
<path d="M220.863 41.8314H168.105V42.1033H220.863V41.8314Z" fill="#3AA655"/>
<path d="M220.863 54.4825H168.105V54.7544H220.863V54.4825Z" fill="#3AA655"/>
<path d="M220.863 29.1589H168.105V29.4308H220.863V29.1589Z" fill="#3AA655"/>
<path d="M188.148 29.0657C188.891 29.0657 189.493 28.4634 189.493 27.7205C189.493 26.9777 188.891 26.3754 188.148 26.3754C187.405 26.3754 186.803 26.9777 186.803 27.7205C186.803 28.4634 187.405 29.0657 188.148 29.0657Z" fill="#3AA655"/>
<path d="M191.855 27.3199C183.189 27.3199 176.141 34.3682 176.141 43.0336C176.141 51.699 183.189 58.7472 191.855 58.7472C200.52 58.7472 207.568 51.699 207.568 43.0336C207.568 34.3682 200.52 27.3199 191.855 27.3199ZM191.855 58.3465C183.411 58.3465 176.542 51.4771 176.542 43.0336C176.542 34.59 183.411 27.7207 191.855 27.7207C200.298 27.7207 207.167 34.59 207.167 43.0336C207.167 51.4771 200.298 58.3465 191.855 58.3465Z" fill="#3AA655"/>
<path d="M195.59 56.5219C194.846 56.5219 194.245 57.1229 194.245 57.867C194.245 58.6111 194.846 59.2121 195.59 59.2121C196.334 59.2121 196.935 58.6111 196.935 57.867C196.935 57.1229 196.334 56.5219 195.59 56.5219Z" fill="#3AA655"/>
<path d="M203.382 23.4916L178.76 30.0032C178.653 30.0318 178.588 30.1392 178.617 30.2465C178.638 30.3324 178.724 30.3968 178.81 30.3968C178.824 30.3968 178.846 30.3968 178.86 30.3968L203.482 23.8852C203.59 23.8566 203.654 23.7492 203.625 23.6419C203.597 23.5346 203.489 23.4702 203.382 23.4988V23.4916Z" fill="#3AA655"/>
<path d="M178.717 30.7903C179.013 30.7903 179.254 30.55 179.254 30.2537C179.254 29.9573 179.013 29.717 178.717 29.717C178.421 29.717 178.18 29.9573 178.18 30.2537C178.18 30.55 178.421 30.7903 178.717 30.7903Z" fill="#3AA655"/>
<path d="M203.432 24.2215C203.729 24.2215 203.969 23.9812 203.969 23.6849C203.969 23.3885 203.729 23.1483 203.432 23.1483C203.136 23.1483 202.896 23.3885 202.896 23.6849C202.896 23.9812 203.136 24.2215 203.432 24.2215Z" fill="#3AA655"/>
<path d="M209.615 54.969L187.196 59.9922C187.089 60.0137 187.024 60.121 187.046 60.2283C187.067 60.3214 187.146 60.3858 187.239 60.3858C187.253 60.3858 187.268 60.3858 187.282 60.3858L209.7 55.3626C209.808 55.3411 209.872 55.2338 209.851 55.1264C209.829 55.0191 209.722 54.9547 209.615 54.9762V54.969Z" fill="#3AA655"/>
<path d="M187.16 59.7061C186.867 59.6918 186.617 59.9279 186.609 60.2212C186.595 60.5146 186.831 60.765 187.125 60.7721C187.418 60.7864 187.668 60.5503 187.676 60.257C187.69 59.9636 187.454 59.7132 187.16 59.7061Z" fill="#3AA655"/>
<path d="M209.736 54.6184C209.443 54.6041 209.193 54.8402 209.185 55.1336C209.171 55.4269 209.407 55.6773 209.701 55.6845C209.994 55.6988 210.244 55.4627 210.252 55.1693C210.266 54.876 210.03 54.6256 209.736 54.6184Z" fill="#3D5EB2"/>
<g opacity="0.6">
<path d="M219.718 16.8084H169.243C168.534 16.8084 167.962 17.3809 167.962 18.0893V65.8384C167.962 66.5468 168.534 67.1192 169.243 67.1192H219.718C220.427 67.1192 220.999 66.5468 220.999 65.8384V18.0893C220.999 17.3809 220.427 16.8084 219.718 16.8084ZM220.727 65.8384C220.727 66.3965 220.276 66.8473 219.718 66.8473H169.243C168.685 66.8473 168.234 66.3965 168.234 65.8384V18.0893C168.234 17.5311 168.685 17.0803 169.243 17.0803H219.718C220.276 17.0803 220.727 17.5311 220.727 18.0893V65.8384Z" fill="#3AA655"/>
</g>
<path d="M161.722 19.5204H152.37C151.125 19.5204 150.116 20.5293 150.116 21.7744V62.0745C150.116 63.3196 151.125 64.3286 152.37 64.3286H161.722C162.968 64.3286 163.976 63.3196 163.976 62.0745V21.7744C163.976 20.5293 162.968 19.5204 161.722 19.5204ZM162.216 59.5129C162.216 59.9422 161.866 60.2928 161.443 60.2928H152.692C152.263 60.2928 151.919 59.9422 151.919 59.5129V57.0299C151.919 56.6005 152.27 56.2571 152.692 56.2571H161.443C161.873 56.2571 162.216 56.6077 162.216 57.0299V59.5129ZM162.216 52.7437C162.216 53.173 161.866 53.5165 161.443 53.5165H152.692C152.263 53.5165 151.919 53.1659 151.919 52.7437V50.2607C151.919 49.8314 152.27 49.4879 152.692 49.4879H161.443C161.873 49.4879 162.216 49.8385 162.216 50.2607V52.7437ZM162.216 46.1606C162.216 46.5899 161.866 46.9334 161.443 46.9334H152.692C152.263 46.9334 151.919 46.5827 151.919 46.1606V43.6776C151.919 43.2482 152.27 42.9048 152.692 42.9048H161.443C161.873 42.9048 162.216 43.2554 162.216 43.6776V46.1606ZM162.216 39.5774C162.216 40.0068 161.866 40.3502 161.443 40.3502H152.692C152.263 40.3502 151.919 39.9996 151.919 39.5774V37.0945C151.919 36.6651 152.27 36.3217 152.692 36.3217H161.443C161.873 36.3217 162.216 36.6723 162.216 37.0945V39.5774ZM162.216 32.9943C162.216 33.4237 161.866 33.7671 161.443 33.7671H152.692C152.263 33.7671 151.919 33.4165 151.919 32.9943V30.5113C151.919 30.082 152.27 29.7385 152.692 29.7385H161.443C161.873 29.7385 162.216 30.0892 162.216 30.5113V32.9943ZM162.216 26.4112C162.216 26.8405 161.866 27.184 161.443 27.184H152.692C152.263 27.184 151.919 26.8334 151.919 26.4112V23.9282C151.919 23.4989 152.27 23.1554 152.692 23.1554H161.443C161.873 23.1554 162.216 23.506 162.216 23.9282V26.4112Z" fill="#3AA655"/>
<path d="M245.678 62.406H238.286V51.3578C238.286 50.6136 237.678 50.0054 236.934 50.0054H228.039C228.039 50.0054 228.039 49.941 228.039 49.9052C228.039 49.4115 227.639 49.0107 227.145 49.0107C226.651 49.0107 226.25 49.4115 226.25 49.9052C226.25 49.941 226.25 49.9696 226.25 50.0054H217.356C216.612 50.0054 216.004 50.6136 216.004 51.3578V76.9175C216.004 77.6616 216.612 78.2699 217.356 78.2699H224.748V89.3181C224.748 90.0622 225.356 90.6705 226.1 90.6705H245.656C246.4 90.6705 247.009 90.0622 247.009 89.3181V63.7584C247.009 63.0142 246.4 62.406 245.656 62.406H245.678Z" fill="#101010"/>
<path d="M234.909 47.9946H215.352C214.605 47.9946 214 48.6001 214 49.347V74.9067C214 75.6536 214.605 76.2591 215.352 76.2591H234.909C235.655 76.2591 236.261 75.6536 236.261 74.9067V49.347C236.261 48.6001 235.655 47.9946 234.909 47.9946Z" fill="#F9E9E9"/>
<path d="M225.127 48.7887C225.621 48.7887 226.021 48.3883 226.021 47.8944C226.021 47.4004 225.621 47 225.127 47C224.633 47 224.232 47.4004 224.232 47.8944C224.232 48.3883 224.633 48.7887 225.127 48.7887Z" fill="#101010"/>
<path d="M233.964 51.5008H224.354C224.026 51.5008 223.76 51.7667 223.76 52.0947V72.0301C223.76 72.3581 224.026 72.624 224.354 72.624H233.964C234.292 72.624 234.558 72.3581 234.558 72.0301V52.0947C234.558 51.7667 234.292 51.5008 233.964 51.5008Z" fill="#AF272C"/>
<path d="M220.769 51.5008H216.547C216.219 51.5008 215.953 51.7667 215.953 52.0947V72.0301C215.953 72.3581 216.219 72.624 216.547 72.624H220.769C221.097 72.624 221.363 72.3581 221.363 72.0301V52.0947C221.363 51.7667 221.097 51.5008 220.769 51.5008Z" fill="#AF272C"/>
<path d="M243.653 60.3952H224.096C223.35 60.3952 222.744 61.0007 222.744 61.7476V87.3073C222.744 88.0542 223.35 88.6597 224.096 88.6597H243.653C244.4 88.6597 245.005 88.0542 245.005 87.3073V61.7476C245.005 61.0007 244.4 60.3952 243.653 60.3952Z" fill="#BCBCBC"/>
<path d="M224.883 61.4971C224.39 61.4971 223.989 61.8977 223.989 62.3914C223.989 62.8851 224.39 63.2858 224.883 63.2858C225.377 63.2858 225.778 62.8851 225.778 62.3914C225.778 61.8977 225.377 61.4971 224.883 61.4971Z" fill="#101010"/>
<path d="M225.878 67.4935V78.0122H237.184V66.7064H226.665C226.236 66.7064 225.878 67.057 225.878 67.4935Z" fill="#EFEFEF"/>
<path d="M230.558 84.5524H239.202C240.669 84.5524 241.857 83.3646 241.857 81.8977V73.2538H230.551V84.5596L230.558 84.5524Z" fill="#101010"/>
<path d="M237.184 65.3755H225.878V65.6045H237.184V65.3755Z" fill="#101010"/>
<path d="M237.291 65.0607H237.062V65.8906H237.291V65.0607Z" fill="#101010"/>
<path d="M225.993 65.0607H225.764V65.8906H225.993V65.0607Z" fill="#101010"/>
<path d="M241.864 85.5542H230.558V85.7832H241.864V85.5542Z" fill="#101010"/>
<path d="M241.978 85.2322H241.749V86.0621H241.978V85.2322Z" fill="#101010"/>
<path d="M230.673 85.2322H230.444V86.0621H230.673V85.2322Z" fill="#101010"/>
<path d="M376.705 233.59H1.29516C0.579601 233.59 0 233.011 0 232.295C0 231.58 0.579601 231 1.29516 231H376.705C377.42 231 378 231.58 378 232.295C378 233.011 377.42 233.59 376.705 233.59Z" fill="#F3D2D4"/>
</g>
<g clip-path="url(#clip0_196_6167)">
<path d="M60.4685 223.633C60.3903 224.175 60.4827 224.709 61.087 224.709H64.5778C64.9902 224.709 65.7367 224.46 65.8006 224.096L76.2446 176.655L68.6871 176.463L60.4614 223.633H60.4685Z" fill="#515151"/>
<path d="M87.0867 223.633C86.9374 224.175 87.3782 224.709 87.9825 224.709H91.4733C91.8857 224.709 92.2412 224.46 92.362 224.096L107.768 176.655L100.239 176.463L87.0867 223.633Z" fill="#515151"/>
<path d="M79.2306 223.833C79.2235 224.31 79.643 224.702 80.1549 224.702H83.7097C84.2002 224.702 84.6126 224.346 84.6339 223.89L87.1933 177.532L79.9416 176.948L79.2235 223.84L79.2306 223.833Z" fill="#515151"/>
<path d="M123.644 176.456L116.115 176.648L131.522 224.089C131.642 224.453 131.998 224.702 132.41 224.702H135.901C136.505 224.702 136.946 224.175 136.797 223.626L123.644 176.456Z" fill="#515151"/>
<path d="M115.326 142.056L79.8207 107.792H63.6394C63.6394 107.792 52.7617 107.571 51.7877 116.836C50.8137 126.1 64.1655 166.073 64.1655 166.073C64.1655 166.073 64.0233 167.042 64.0588 168.453C64.0588 168.766 64.0801 169.101 64.1086 169.451C64.3859 173.085 65.9357 178.437 72.5263 179.093L82.1171 179.784L126.602 178.565C126.602 178.565 129.033 177.14 129.211 173.755C129.218 173.591 129.19 173.356 129.14 173.078C128.038 167.648 115.326 142.064 115.326 142.064V142.056Z" fill="#515151"/>
<path d="M65.8718 111.028C65.8718 111.028 59.3025 110.8 59.8642 116.843C61.6913 136.59 73.4861 167.726 73.3653 165.189C73.3653 165.189 75.7256 170.691 87.755 170.099L83.276 111.135L65.8718 111.035V111.028Z" fill="#6B6B6B"/>
<path d="M82.4371 172.793C82.4371 172.793 65.7935 172.935 64.2863 169.194C64.5636 172.829 66.0424 178.252 72.5903 178.907L82.11 179.57L126.509 178.373C126.509 178.373 128.813 176.983 128.991 173.605C128.998 173.441 128.884 173.071 128.827 172.793H82.4371Z" fill="#515151"/>
<path d="M133.896 146.233H162.007V140.902L138.176 137.025L133.896 146.233Z" fill="#F2A69E"/>
<path d="M82.0958 137.032L70.237 131.31C70.237 131.31 73.6283 113.971 80.4037 106.816C80.7948 106.41 81.2 106.018 81.6266 105.647C82.2024 105.526 94.7153 103.153 82.0887 137.032H82.0958Z" fill="#AF272C"/>
<path d="M139.69 134.702C139.577 140.225 137.693 143.41 136.363 144.985C135.624 145.855 135.055 146.232 135.055 146.232H123.466L121.007 135.557C122.016 112.46 113.904 100.623 113.428 99.9388C113.413 99.9175 113.406 99.9103 113.406 99.9103C128.863 104.008 133.221 125.701 134.344 128.808C135.503 132.022 139.69 134.702 139.69 134.702Z" fill="#AF272C"/>
<path d="M121.007 135.557L123.466 146.232L79.6857 147.487C92.3123 113.607 82.2096 105.526 81.6337 105.647C86.9659 100.979 94.9713 99.2476 98.4763 98.6846C98.2914 98.7701 98.0995 98.8556 97.9146 98.9411C97.9146 98.9411 103.425 110.515 111.103 110.208C117.317 109.952 114.871 103.11 113.428 99.9388C113.904 100.623 122.016 112.46 121.007 135.557Z" fill="#AF272C"/>
<path d="M111.743 99.5469L107.093 100.566L100.232 98.4495C100.232 98.4495 99.5711 98.5136 98.4763 98.6846C98.2914 98.7702 98.0995 98.8557 97.9146 98.9412C97.9146 98.9412 103.432 110.515 111.103 110.201C117.338 109.944 114.864 103.067 113.406 99.9104C112.866 99.7679 112.312 99.6467 111.743 99.5469Z" fill="#AF272C"/>
<path d="M123.033 74.6968C121.277 71.7963 119.556 70.0432 117.907 69.131C110.108 64.8124 103.951 79.2435 103.297 78.5451C102.507 77.7042 99.4147 78.0677 99.628 81.467C99.8129 84.4601 102.088 86.1705 102.635 86.5339C102.714 86.5838 102.756 86.6123 102.756 86.6123L102.721 86.7762C105.38 94.1806 110.278 95.9908 112.546 96.4397C113.271 96.5823 113.719 96.5823 113.755 96.5823C118.838 95.9836 118.248 94.8291 121.54 88.4866C124.839 82.1583 123.019 74.6968 123.019 74.6968H123.033Z" fill="#FCB8AC"/>
<path d="M127.533 72.3237C127.81 75.495 125.713 78.6093 124.334 77.8681C124.057 77.7185 123.758 77.5831 123.438 77.4619C121.198 76.6068 118.028 76.4143 115.475 76.9773C112.596 77.6116 110.541 75.8442 110.484 75.7943C108.081 79.9633 103.581 82.9422 103.581 82.9422C104.05 80.6047 103.339 78.6236 103.311 78.538C102.522 77.6971 99.436 78.0534 99.6422 81.4599C99.8271 84.453 102.102 86.1562 102.657 86.5268L102.571 87.5602C99.3649 86.1776 98.8175 81.9516 98.9881 78.3884C99.1303 75.4166 99.7702 72.9081 99.7702 72.9081C105.913 58.7264 109.923 66.2235 109.923 66.2235C109.923 66.2235 112.297 65.1759 117.622 64.1497C122.947 63.1234 123.658 67.2996 123.658 67.2996C126.31 68.4184 127.37 70.3782 127.54 72.3166L127.533 72.3237Z" fill="#3C2E2D"/>
<path d="M102.728 86.7762C102.699 86.6978 102.671 86.6123 102.642 86.5339" stroke="#2C2221" stroke-miterlimit="10"/>
<path d="M113.769 96.5823L112.951 99.6396C106.759 99.0409 102.856 93.9954 101.59 92.0855L102.251 89.0069L102.294 88.8216L102.728 86.7834C106.233 96.5395 113.627 96.5823 113.769 96.5823Z" fill="#EFA39C"/>
<path d="M112.951 99.6395L112.255 102.248C112.048 103.025 111.643 103.737 111.06 104.286C110.563 104.749 110.036 105.02 109.496 105.148C105.529 106.032 100.574 99.048 100.417 98.8271C100.403 98.6418 100.389 98.4565 100.389 98.2641C100.389 97.9505 100.417 97.637 100.467 97.3163L101.59 92.0854C102.856 93.9953 106.759 99.0409 112.951 99.6395Z" fill="#FCB8AC"/>
<path d="M81.6261 105.647L81.6124 105.654" stroke="#DD7026" stroke-miterlimit="10"/>
<path d="M97.9146 99.1407C97.9146 99.1407 103.183 110.472 110.029 110.165C116.876 109.859 113.485 100.302 113.485 100.302" stroke="#CC424C" stroke-linecap="round" stroke-linejoin="round"/>
<path d="M87 126.372L91.6568 111" stroke="#CC424C" stroke-linecap="round" stroke-linejoin="round"/>
<path d="M118.575 115.254C118.575 115.254 121.163 121.083 121.092 132.4C121.021 143.717 123.466 146.232 123.466 146.232" stroke="#CC424C" stroke-linecap="round" stroke-linejoin="round"/>
<path d="M113.81 82.3939C113.71 83.0709 113.234 83.5626 112.736 83.4842C112.239 83.4058 111.919 82.7858 112.018 82.0946C112.118 81.4033 112.601 80.9187 113.099 81.0114C113.596 81.104 113.909 81.7169 113.81 82.401V82.3939Z" fill="#513E3E"/>
<path d="M121.81 83.3938C121.71 84.0708 121.234 84.5625 120.736 84.4841C120.239 84.4057 119.919 83.7857 120.018 83.0944C120.118 82.4103 120.601 81.9186 121.099 82.0112C121.596 82.1039 121.909 82.7167 121.81 83.4009V83.3938Z" fill="#513E3E"/>
<path d="M116.975 91.5795L112.048 90.7172C112.048 90.7172 111.793 92.7411 114.423 93.2471C116.435 93.632 116.975 91.5795 116.975 91.5795Z" fill="#F8F9FB"/>
<path d="M116.705 81.8091C116.705 81.8091 116.613 86.2988 117.452 87.1397C118.291 87.9806 116.805 88.7218 115.447 88.1944" stroke="#EA877A" stroke-linecap="round" stroke-linejoin="round"/>
<path d="M114.117 80.4836C114.117 80.4836 112.411 79.4573 110.271 80.4479" stroke="#513E3E" stroke-miterlimit="10" stroke-linecap="round"/>
<path d="M122.308 81.1321C122.308 81.1321 120.601 80.1058 118.461 81.0964" stroke="#513E3E" stroke-miterlimit="10" stroke-linecap="round"/>
<path d="M113.257 96.5467C113.257 96.5467 106.901 95.8411 103.986 89.6055" stroke="#EA877A" stroke-linecap="round" stroke-linejoin="round"/>
<path d="M100.389 81.0893C100.389 81.0893 100.957 79.1295 101.889 79.1794C102.82 79.2293 103.14 83.0776 102.728 84.282C102.315 85.4863 101.562 82.1226 102.337 81.8019" stroke="#EA877A" stroke-linecap="round" stroke-linejoin="round"/>
<path d="M122.308 68.903C122.308 68.903 125.535 71.7964 124.071 75.7872" stroke="#513E3E" stroke-miterlimit="10" stroke-linecap="round"/>
<path d="M119.428 69.2166C119.428 69.2166 120.687 71.9318 119.848 75.381" stroke="#513E3E" stroke-miterlimit="10" stroke-linecap="round"/>
<path d="M115.447 69.6299C115.447 69.6299 115.952 73.6564 115.255 75.381" stroke="#513E3E" stroke-miterlimit="10" stroke-linecap="round"/>
<path d="M101.491 113.044L102.884 112.56C102.884 112.56 103.161 110.971 105.294 110.386L105.173 109.218C105.173 109.218 101.853 109.759 101.498 113.044H101.491Z" fill="#E2E0D7"/>
<path d="M106.147 107.293H106.027C105.465 107.293 105.024 107.785 105.081 108.348L106.162 118.689C106.211 119.173 106.624 119.544 107.107 119.544H115.859C116.35 119.544 116.762 119.173 116.805 118.682L117.132 115.254C109.055 115.068 106.631 108.868 106.147 107.293Z" fill="#F3F1E4"/>
<path d="M116.847 107.293H106.147C106.631 108.868 109.055 115.061 117.132 115.254L117.793 108.341C117.85 107.778 117.409 107.293 116.847 107.293Z" fill="#F3F1E4"/>
<path d="M104.768 111.477L104.192 111.377C103.908 111.327 103.624 111.477 103.503 111.74L103.289 112.189C103.161 112.467 102.906 112.667 102.6 112.717L100.531 113.073C100.446 113.087 100.353 113.094 100.268 113.094C99.9906 113.094 99.7133 113.016 99.4645 112.873C99.2441 112.738 99.173 112.46 99.2939 112.232L99.3863 112.068C99.628 111.641 100.033 111.327 100.502 111.199C100.716 111.142 100.965 111.063 101.242 110.978C101.725 110.828 102.28 110.629 102.806 110.401C103.467 110.108 103.801 109.667 103.972 109.275C104.135 108.897 103.801 108.491 103.396 108.562L98.2345 109.51C97.3103 109.681 96.4358 110.051 95.668 110.6L89.9661 114.684L72.2633 128.823C69.7607 130.825 68.5521 134.06 69.1777 137.21C69.1777 137.239 69.1848 137.26 69.1919 137.289C69.2061 137.346 69.2132 137.403 69.2275 137.453C69.6683 139.498 71.5239 140.93 73.6141 140.802C74.645 140.738 75.7114 140.524 76.7281 140.232C80.2686 139.22 83.3186 136.932 85.3378 133.84L93.5564 121.276C93.7626 120.962 94.1252 120.777 94.502 120.798L98.1705 121.026L100.908 121.197C101.882 121.261 102.849 121.012 103.673 120.485C103.744 120.442 103.816 120.392 103.887 120.342L105.892 118.917C105.892 118.917 105.941 118.867 105.941 118.831L106.475 114.042C106.489 113.942 106.489 113.843 106.489 113.743C106.489 113.33 106.389 112.916 106.204 112.546C105.92 111.983 105.387 111.584 104.768 111.477Z" fill="#FCB8AC"/>
<path d="M100.602 115.753C100.602 115.753 105.956 115.133 106.147 113.037" stroke="#EA877A" stroke-linecap="round" stroke-linejoin="round"/>
<path d="M100.915 118.282C100.915 118.282 105.472 117.798 106.119 116.764" stroke="#EA877A" stroke-linecap="round" stroke-linejoin="round"/>
<path d="M94.8504 228.429C94.8504 228.429 92.7957 233.682 102.152 234.9C103.823 235.121 105.536 234.986 107.122 234.423C109.261 233.667 111.586 232.085 110.669 228.786L94.8504 228.429Z" fill="#282828"/>
<path d="M109.894 226.641C109.894 226.641 107.342 224.339 106.325 221.695C105.301 219.051 102.714 219.222 102.714 219.222H96.5425L96.4287 221.296V219.222C96.4287 219.222 95.5258 219.735 95.3552 221.011C95.2343 221.909 94.9926 226.049 94.8575 228.429C94.7793 229.805 95.5542 231.088 96.8126 231.636C98.3127 232.285 100.83 232.848 104.967 232.606C107.818 232.434 109.318 231.722 110.058 230.838C111.537 229.071 109.901 226.634 109.901 226.634L109.894 226.641Z" fill="#BCBCBC"/>
<path d="M96.4287 221.289C96.4287 221.289 100.645 218.581 104.861 221.289L105.579 215.388L96.4358 214.433V221.289H96.4287Z" fill="#F2A69E"/>
<path d="M139.015 227.852C139.015 227.852 138.937 229.156 139.335 230.375C139.577 231.102 140.245 231.601 141.006 231.601H160.564C161.232 231.601 161.83 231.145 161.958 230.482C162 230.275 162.015 230.033 161.993 229.762L139.015 227.845V227.852Z" fill="#282828"/>
<path d="M159.633 224.681C157.585 223.263 154.791 223.063 153.632 222.564C151.67 221.723 148.848 219.536 148.848 219.536C147.952 218.866 139.641 220.433 139.641 220.433C139.641 220.433 138.681 224.667 138.894 227.132C138.894 227.161 138.894 227.189 138.901 227.225C138.901 227.275 138.908 227.325 138.916 227.375C138.958 227.809 139.022 228.173 139.086 228.479C139.278 229.363 140.067 229.983 140.97 229.983H161.574C161.808 229.983 162 229.791 162 229.555C162.015 227.104 160.991 225.622 159.633 224.681Z" fill="#BCBCBC"/>
<path d="M139.783 221.21L144.873 222.564C144.873 222.564 146.7 219.293 148.848 219.536V213.157L138.51 214.355L139.783 221.21Z" fill="#F2A69E"/>
<path d="M150.22 193.581V193.545L150.006 190.88C150.006 190.866 150.006 190.859 150.006 190.851L148.257 168.688C148.257 168.688 148.115 159.089 137.408 156.637C133.733 155.796 128.059 154.955 122.194 154.214C110.968 152.796 99.0308 151.741 99.0308 151.741L107.932 168.781L110.243 173.206L127.242 175.009C127.704 175.059 128.081 175.394 128.187 175.85L137.401 215.766C137.401 215.766 139.107 216.136 141.731 216.022C144.404 215.915 148.023 215.31 151.77 213.314L150.22 193.602C150.22 193.602 150.22 193.595 150.22 193.581Z" fill="#282828"/>
<path d="M187.275 146.233H45.9934C43.3862 146.233 41.2726 148.351 41.2726 150.965C41.2726 153.578 43.3862 155.697 45.9934 155.697H187.275C189.882 155.697 191.996 153.578 191.996 150.965C191.996 148.351 189.882 146.233 187.275 146.233Z" fill="#464646"/>
<path d="M108.963 158.333C107.719 157.963 106.418 157.649 105.095 157.378C105.095 157.378 105.095 157.378 105.088 157.378C104.711 157.3 104.327 157.222 103.944 157.15C103.944 157.15 103.944 157.15 103.936 157.15C96.8482 155.825 89.7741 155.697 89.7741 155.697L80.5672 157.578C80.5672 157.578 80.4748 157.813 80.3539 158.234C79.771 160.25 79.6785 162.296 80.0056 164.248C80.7947 169.03 84.1007 173.228 88.9139 174.988L94.3527 176.976V215.388C94.3527 215.388 96.2439 216.208 99.0166 216.55C102.031 216.913 106.084 216.714 109.887 214.262L111.665 198.341V198.327V198.306V198.277C111.665 198.256 111.665 198.227 111.672 198.199C111.672 198.192 111.672 198.185 111.672 198.17V198.113L114.579 172.087C114.579 172.087 117.238 160.792 108.942 158.34L108.963 158.333Z" fill="#282828"/>
<path d="M79.8207 150.964C77.4888 157.542 79.8207 166.08 79.8207 166.08C79.8207 166.08 81.0151 165.324 87.7479 161.896C96.7628 157.3 106.446 160.186 112.681 158.469C118.916 156.758 126.602 154.642 126.602 154.642C126.602 154.642 82.1527 144.394 79.8207 150.972V150.964Z" fill="#AF272C"/>
<path d="M211.433 146.233H70.1517C67.5445 146.233 65.4309 148.351 65.4309 150.965C65.4309 153.578 67.5445 155.697 70.1517 155.697H211.433C214.04 155.697 216.154 153.578 216.154 150.965C216.154 148.351 214.04 146.233 211.433 146.233Z" fill="#515151"/>
<path d="M40 231.465H44.9483L57.9019 155.697H50.8066L40 231.465Z" fill="#353535"/>
<path d="M43.441 231.465H48.3822L61.343 155.697H54.2476L43.441 231.465Z" fill="#515151"/>
<path d="M198.522 155.697L211.54 231.373H217L205.618 155.697H198.522Z" fill="#515151"/>
<path d="M195.081 155.697L208.618 231.373H212.023L199.688 155.697H195.081Z" fill="#353535"/>
<path d="M191.228 155.697H184.9L200.484 231.373H205.17L192.301 161.704L191.228 155.697Z" fill="#515151"/>
<path d="M182.227 155.697L198.323 231.373H200.961L186.066 155.697H182.227Z" fill="#353535"/>
<path d="M52.0578 231.373H57.0061L72.5263 155.604H65.4309L52.0578 231.373Z" fill="#353535"/>
<path d="M55.4989 231.373H60.4471L75.9673 155.604H68.872L55.4989 231.373Z" fill="#515151"/>
<path d="M111.316 159.445C116.108 161.419 114.594 172.08 114.594 172.08L112.418 191.564" stroke="#3F3F3F" stroke-linecap="round" stroke-linejoin="round"/>
<path d="M114.608 173.669L128.991 175.137" stroke="#3F3F3F" stroke-linecap="round" stroke-linejoin="round"/>
<path d="M193.361 89.1636H137.387C136.576 89.1636 135.894 89.7836 135.83 90.5961L132.474 129.692C132.396 130.611 133.114 131.395 134.031 131.395H190.005C190.815 131.395 191.498 130.775 191.562 129.963L194.918 90.8669C194.996 89.9475 194.278 89.1636 193.361 89.1636Z" fill="#D0D1D0"/>
<path d="M196.695 89.2848C196.51 89.2064 196.311 89.1636 196.098 89.1636H140.124C139.314 89.1636 138.631 89.7836 138.567 90.5961L136.619 113.315L136.249 117.648L135.219 129.692C135.14 130.611 135.858 131.395 136.776 131.395H192.749C193.56 131.395 194.242 130.768 194.306 129.963L197.043 98.0646L197.498 92.7269L197.655 90.8597C197.719 90.1542 197.306 89.5271 196.695 89.2777V89.2848Z" fill="#E3E3E2"/>
<path d="M175.238 119.865C175.153 119.423 174.762 119.102 174.314 119.102H153.32C152.737 119.102 152.296 119.629 152.388 120.199L155.772 142.904C155.851 143.361 156.242 143.695 156.704 143.695H178.452C179.049 143.695 179.497 143.154 179.376 142.57L175.238 119.865Z" fill="#D0D1D0"/>
<path d="M176.504 119.865C176.419 119.423 176.028 119.102 175.58 119.102H154.585C154.002 119.102 153.561 119.629 153.654 120.199L157.038 142.904C157.116 143.361 157.507 143.695 157.969 143.695H179.717C180.315 143.695 180.762 143.154 180.642 142.57L176.504 119.865Z" fill="#E3E3E2"/>
<path d="M179.568 143.71H156.611C157.208 143.71 157.699 144.194 157.699 144.8C157.699 145.099 157.578 145.37 157.379 145.57C157.18 145.762 156.91 145.89 156.611 145.89H179.568C179.867 145.89 180.137 145.769 180.336 145.57C180.528 145.37 180.656 145.099 180.656 144.8C180.656 144.201 180.165 143.71 179.568 143.71Z" fill="#D1D1D1"/>
<path d="M156.618 143.71H143.622C143.323 143.71 143.053 143.831 142.854 144.03C142.655 144.223 142.534 144.501 142.534 144.8C142.534 145.399 143.025 145.89 143.622 145.89H156.618C156.917 145.89 157.187 145.769 157.386 145.57C157.578 145.37 157.706 145.099 157.706 144.8C157.706 144.201 157.216 143.71 156.618 143.71Z" fill="#AFB1B0"/>
<path d="M137.984 143.71H103.766C104.363 143.71 104.854 144.194 104.854 144.8C104.854 145.099 104.733 145.37 104.534 145.57C104.335 145.762 104.064 145.89 103.766 145.89H137.984C138.283 145.89 138.553 145.769 138.752 145.57C138.944 145.37 139.072 145.099 139.072 144.8C139.072 144.201 138.581 143.71 137.984 143.71Z" fill="#D1D1D1"/>
<path d="M103.773 143.71H90.7766C90.478 143.71 90.2078 143.831 90.0087 144.03C89.8097 144.223 89.6888 144.501 89.6888 144.8C89.6888 145.399 90.1794 145.89 90.7766 145.89H103.773C104.071 145.89 104.342 145.769 104.541 145.57C104.733 145.37 104.861 145.099 104.861 144.8C104.861 144.201 104.37 143.71 103.773 143.71Z" fill="#AFB1B0"/>
<path d="M156.917 119.102H175.651C176.056 119.102 176.404 119.394 176.475 119.793L180.635 142.57" stroke="#D0D1D0" stroke-linecap="round" stroke-linejoin="round"/>
<path d="M171.451 107.829C171.735 105.449 170.187 103.306 167.992 103.042C165.797 102.778 163.787 104.493 163.502 106.873C163.217 109.253 164.766 111.396 166.961 111.66C169.156 111.924 171.166 110.209 171.451 107.829Z" stroke="#D0D1D0" stroke-miterlimit="10"/>
<path d="M175.978 89.1636H196.482C197.122 89.1636 197.619 89.7124 197.57 90.3466L194.306 129.963" stroke="#D0D1D0" stroke-linecap="round" stroke-linejoin="round"/>
</g>
<path d="M323.321 196.9L320.412 213.893C320.303 214.537 320.641 215.175 321.239 215.452L321.776 215.693L336.594 193.217L329.314 190.696L328.361 191.111L323.327 196.9H323.321Z" fill="#333333"/>
<path d="M321.758 215.729L321.414 216.415C321.239 216.758 321.389 217.179 321.739 217.341C322.041 217.48 322.397 217.377 322.585 217.107L337.879 194.788C338.109 194.457 338 194.006 337.644 193.807L337.137 193.53C336.823 193.356 336.431 193.452 336.238 193.753L321.794 215.669C321.794 215.669 321.764 215.711 321.752 215.735L321.758 215.729Z" fill="#D0D1D0"/>
<path d="M317.496 192.002L323.321 196.9C323.321 196.9 326.134 196.479 327.401 195.636C328.669 194.794 328.349 191.111 328.349 191.111L320.75 183.114L317.49 192.002H317.496Z" fill="#FFBC96"/>
<path d="M297.433 221.71L280.678 229.695C280.328 229.864 280.104 230.213 280.104 230.598V230.905L308.105 230.141L305.714 221.205L297.433 221.716V221.71Z" fill="#333333"/>
<path d="M281.052 230.556H280.581C280.183 230.556 279.857 230.881 279.857 231.278C279.857 231.675 280.183 232 280.581 232H308.322C308.72 232 309.046 231.675 309.046 231.278V230.532C309.046 230.123 308.708 229.798 308.298 229.81L281.046 230.556H281.052Z" fill="#D0D1D0"/>
<path d="M297.433 215.693V221.71C297.433 221.71 298.713 224.857 301.616 224.773C304.519 224.689 305.714 221.199 305.714 221.199L306.227 214.989L297.433 215.693Z" fill="#FFBC96"/>
<path d="M312.547 125.232C312.547 125.232 318.679 132.152 317.291 143.952C315.903 155.752 307.205 215.693 307.205 215.693H296.329L294.747 180.003C294.747 180.003 283.273 172.902 282.881 161.469C282.489 150.036 286.834 122.428 286.834 122.428L312.547 125.226V125.232Z" fill="#333333"/>
<path d="M294.747 180.304H294.735C294.566 180.298 294.44 180.153 294.446 179.991L296.25 142.099L291.844 137.02C291.736 136.894 291.748 136.707 291.874 136.593C292.001 136.484 292.188 136.496 292.303 136.623L296.787 141.792C296.836 141.852 296.866 141.924 296.86 142.002L295.049 180.015C295.043 180.177 294.91 180.304 294.747 180.304Z" fill="#4F4F4F"/>
<path d="M311.334 187.013L317.496 192.002L323.321 183.144L312.257 170.874L311.334 187.013Z" fill="#333333"/>
<path d="M282.066 80.955C282.066 80.955 277.388 82.9949 276.501 87.1229C275.614 91.2509 263.88 116.675 263.88 116.675C263.88 116.675 264.273 121.038 270.586 121.038C276.899 121.038 282.006 101.084 282.006 101.084L282.066 80.961V80.955Z" fill="#AF272C"/>
<path d="M279.519 94.5786C279.519 94.5786 279.495 94.5786 279.483 94.5786C279.32 94.5606 279.199 94.4101 279.217 94.2416L279.561 91.4315C279.579 91.269 279.736 91.1487 279.899 91.1667C280.062 91.1848 280.183 91.3352 280.165 91.5037L279.821 94.3139C279.803 94.4643 279.67 94.5786 279.519 94.5786Z" fill="#CC424C"/>
<path d="M304.218 75.8041C304.218 75.8041 306.276 78.2532 307.386 78.4097C308.497 78.5661 317.074 80.6602 318.45 83.2718L312.867 122.223V126.983L291.675 132.555V129.468L289.538 132.555H280.424C280.424 132.555 283.032 129.149 283.352 126.279C283.672 123.408 280.895 115.748 280.895 115.748C280.895 115.748 278.336 88.6153 282.066 80.955C282.066 80.955 288.042 79.6793 288.79 79.0415C289.538 78.4036 291.458 76.7007 291.458 76.7007L304.218 75.8101V75.8041Z" fill="#AF272C"/>
<path d="M266.808 92.2137L263.289 83.9517L262.667 74.0108C262.667 74.0108 263.434 70.4304 264.303 69.2269C264.303 69.2269 263.053 68.0294 261.75 69.2269C260.446 70.4244 259.643 73.2105 259.643 73.2105L255.442 65.0568C255.442 65.0568 254.814 64.1903 253.613 64.6235C252.412 65.0568 253.613 66.6394 253.613 66.6394C253.613 66.6394 251.591 63.4742 250.487 64.1421C249.382 64.8101 250.1 66.0617 250.1 66.0617C250.1 66.0617 247.837 65.6766 248.803 67.6925C249.768 69.7083 250.776 71.5316 250.776 71.5316C250.776 71.5316 248.996 69.9009 248.175 70.4786C247.354 71.0562 249.424 74.2696 251.253 76.2854C251.253 76.2854 251.923 79.234 252.394 80.251C253.897 83.5064 256.547 86.3647 256.547 86.3647L257.464 97.7318L263.283 98.514L266.802 92.2197L266.808 92.2137Z" fill="#FFBC96"/>
<path d="M301.9 74.9436C301.9 74.9436 302.159 76.0809 303.566 76.4118L297.983 81.5929L294.79 86.6356L293.794 83.1274L292.635 81.4064L291.494 77.2062C291.494 77.2062 292.49 75.9846 292.635 74.9376H301.9V74.9436Z" fill="#FFBC96"/>
<path d="M291.675 129.775C291.506 129.775 291.373 129.643 291.373 129.474C291.373 129.396 291.385 121.356 291.162 110.597C290.939 99.7898 294.47 87.4298 294.506 87.3035C294.554 87.147 294.717 87.0507 294.88 87.0989C295.037 87.147 295.134 87.3095 295.085 87.472C295.049 87.5923 291.542 99.868 291.766 110.585C291.989 121.35 291.977 129.396 291.977 129.474C291.977 129.643 291.844 129.775 291.675 129.775Z" fill="#CC424C"/>
<path d="M318.45 83.2777C318.45 83.2777 326.236 96.7629 327.226 110.73C328.216 124.696 324.691 126.79 316.193 123.162L309.571 95.6617C309.571 95.6617 306.922 84.5535 315.088 82.682C315.088 82.682 317.49 82.0923 318.444 83.2777H318.45Z" fill="#AF272C"/>
<path d="M263.88 116.675C263.88 116.675 260.21 109.652 259.649 104.808C259.649 104.808 268.486 101.457 269.107 95.9386L276.079 112.132C276.079 112.132 271.286 121.898 263.88 116.675Z" fill="#AF272C"/>
<path d="M269.107 95.9386L266.808 92.2137C266.808 92.2137 262.703 97.6596 257.47 97.7318L257.784 104.183C257.784 104.183 257.657 104.808 259.649 104.808C259.649 104.808 267.701 103.563 269.107 95.9386Z" fill="#AF272C"/>
<path d="M265.848 96.3357L267.695 114.575C267.791 115.513 268.576 116.23 269.518 116.242L296.437 116.651C297.228 116.663 297.838 115.959 297.717 115.183L294.699 95.9988C294.578 95.2165 293.908 94.6328 293.118 94.6147L267.725 93.9889C266.608 93.9588 265.715 94.9096 265.812 96.0228L265.842 96.3418L265.848 96.3357Z" fill="#E3E3E2"/>
<path d="M294.79 87.6886C294.79 87.6886 294.759 87.6886 294.747 87.6886C294.615 87.6706 294.512 87.5683 294.488 87.4359C294.295 86.118 293.582 82.4775 292.611 81.4966C291.289 80.1607 291.162 76.8511 291.156 76.7127C291.156 76.5442 291.283 76.4058 291.446 76.3998C291.615 76.4058 291.754 76.5262 291.76 76.6886C291.76 76.7187 291.886 79.902 293.039 81.0754C293.999 82.0442 294.633 84.8544 294.916 86.3648L296.691 82.4173C296.709 82.3812 296.733 82.3451 296.763 82.321L304.006 75.5874C304.127 75.4731 304.32 75.4791 304.435 75.6055C304.55 75.7258 304.543 75.9184 304.417 76.0327L297.216 82.7242L295.061 87.5201C295.013 87.6284 294.904 87.7006 294.784 87.7006L294.79 87.6886Z" fill="#CC424C"/>
<path d="M301.097 87.0628C301.019 87.0628 300.94 87.0327 300.88 86.9725L296.751 82.7422C296.637 82.6219 296.637 82.4353 296.751 82.315C296.872 82.2006 297.065 82.2006 297.18 82.315L301.043 86.2745L304.7 80.7745C304.791 80.6361 304.978 80.6 305.117 80.6903C305.256 80.7805 305.292 80.9671 305.201 81.1055L301.338 86.9184C301.29 86.9966 301.206 87.0447 301.115 87.0507C301.103 87.0507 301.097 87.0507 301.085 87.0507L301.097 87.0628Z" fill="#CC424C"/>
<path d="M289.074 86.106C289.025 86.106 288.977 86.094 288.935 86.0759C288.832 86.0278 288.772 85.9195 288.772 85.8051V80.2931C288.772 80.1246 288.905 79.9922 289.074 79.9922C289.243 79.9922 289.375 80.1246 289.375 80.2931V85.2154L293.389 82.2969C293.522 82.2007 293.715 82.2308 293.812 82.3631C293.908 82.4955 293.878 82.6881 293.745 82.7844L289.255 86.0519C289.2 86.088 289.14 86.112 289.08 86.112L289.074 86.106Z" fill="#CC424C"/>
<path d="M256.474 73.1804C256.36 73.1804 256.251 73.1143 256.197 73.0059L253.342 66.7658C253.275 66.6154 253.342 66.4348 253.493 66.3686C253.643 66.3025 253.825 66.3686 253.891 66.5191L256.746 72.7592C256.812 72.9097 256.746 73.0902 256.595 73.1564C256.553 73.1744 256.51 73.1804 256.468 73.1804H256.474Z" fill="#DF7360"/>
<path d="M254.706 74.5645C254.603 74.5645 254.501 74.5103 254.44 74.408L249.847 66.2122C249.768 66.0678 249.817 65.8812 249.962 65.803C250.106 65.7248 250.288 65.7729 250.372 65.9173L254.965 74.1132C255.044 74.2576 254.995 74.4441 254.851 74.5224C254.802 74.5464 254.754 74.5585 254.706 74.5585V74.5645Z" fill="#DF7360"/>
<path d="M253.161 76.1049C253.058 76.1049 252.949 76.0508 252.895 75.9485L250.517 71.6761C250.438 71.5316 250.487 71.3451 250.632 71.2669C250.776 71.1887 250.958 71.2368 251.042 71.3812L253.42 75.6536C253.499 75.798 253.45 75.9846 253.305 76.0628C253.257 76.0869 253.209 76.0989 253.161 76.0989V76.1049Z" fill="#DF7360"/>
<path d="M259.172 76.1049C259.172 76.1049 259.136 76.1049 259.118 76.1049C258.955 76.0748 258.846 75.9184 258.877 75.7559L259.353 73.1684C259.384 73.0059 259.534 72.8976 259.703 72.9277C259.866 72.9578 259.975 73.1142 259.945 73.2767L259.468 75.8642C259.444 76.0086 259.317 76.1109 259.172 76.1109V76.1049Z" fill="#DF7360"/>
<path d="M309.626 119.666L297.922 112.065C297.922 112.065 285.639 109.689 283.569 107.504C283.569 107.504 283.038 106.626 283.871 106.451L281.626 105.32C281.626 105.32 281.155 104.189 282.133 103.876L280.557 102.931C280.557 102.931 279.766 101.011 282.006 101.077C282.006 101.077 281.438 99.194 283.237 99.2843C283.237 99.2843 294.186 101.98 295.574 101.757L294.995 97.822C294.995 97.822 296.763 97.9424 298.164 101.005C299.564 104.068 303.698 106.385 303.698 106.385L311.859 109.472L312.867 116.903L311.358 119.96L309.626 119.659V119.666Z" fill="#FFBC96"/>
<path d="M289.828 103.358C289.828 103.358 289.78 103.358 289.756 103.346L281.939 101.366C281.776 101.324 281.68 101.162 281.722 100.999C281.764 100.837 281.927 100.741 282.09 100.783L289.907 102.762C290.07 102.805 290.166 102.967 290.124 103.129C290.088 103.268 289.967 103.358 289.834 103.358H289.828Z" fill="#DF7360"/>
<path d="M289.164 105.621C289.164 105.621 289.122 105.621 289.104 105.615L282.072 104.171C281.909 104.134 281.801 103.978 281.837 103.815C281.873 103.653 282.03 103.545 282.193 103.581L289.225 105.025C289.388 105.061 289.496 105.218 289.46 105.38C289.43 105.524 289.303 105.621 289.164 105.621Z" fill="#DF7360"/>
<path d="M288.687 107.829C288.687 107.829 288.645 107.829 288.621 107.823L283.81 106.746C283.648 106.71 283.545 106.547 283.581 106.385C283.617 106.222 283.78 106.12 283.943 106.156L288.754 107.233C288.917 107.27 289.019 107.432 288.983 107.594C288.953 107.733 288.826 107.829 288.687 107.829Z" fill="#DF7360"/>
<path d="M319.283 112.818L311.177 109.177C311.177 109.177 313.591 118.865 309.632 119.666L315.329 124.173C315.329 124.173 318.794 123.432 319.289 112.818H319.283Z" fill="#AF272C"/>
<path d="M315.323 124.473C315.257 124.473 315.191 124.449 315.136 124.407L310.459 120.707C310.326 120.604 310.308 120.412 310.41 120.285C310.513 120.153 310.706 120.135 310.833 120.237L315.402 123.854C318.015 123.24 318.854 116.037 318.975 113.01L311.605 109.701C311.907 111.079 312.547 114.502 312.07 116.741C312.034 116.903 311.877 117.006 311.714 116.976C311.551 116.94 311.448 116.783 311.479 116.621C312.04 113.961 310.893 109.303 310.881 109.255C310.851 109.141 310.893 109.027 310.984 108.954C311.074 108.882 311.195 108.864 311.304 108.912L319.41 112.553C319.518 112.601 319.591 112.715 319.585 112.836C319.573 113.287 319.204 123.896 315.366 124.479C315.348 124.479 315.336 124.479 315.317 124.479L315.323 124.473Z" fill="#CC424C"/>
<path d="M287.275 116.813L270.429 116.56C269.506 116.681 268.727 116.506 268.178 116.055C267.472 115.471 267.405 114.635 267.405 114.599L266.548 106.144C266.53 105.976 266.651 105.831 266.82 105.813C266.983 105.795 267.134 105.916 267.152 106.084L268.009 114.551C268.009 114.551 268.063 115.182 268.57 115.598C268.987 115.941 269.602 116.061 270.399 115.965L287.287 116.217C287.456 116.217 287.589 116.356 287.583 116.524C287.583 116.687 287.444 116.819 287.281 116.819L287.275 116.813Z" fill="#939393"/>
<path d="M259.251 105.127C257.651 105.127 257.5 104.321 257.488 104.219L257.271 99.7055C257.265 99.537 257.392 99.3986 257.555 99.3926C257.736 99.3685 257.863 99.5129 257.869 99.6754L258.086 104.164C258.092 104.164 258.273 104.61 259.625 104.507C261.255 104.381 264.025 102.582 265.594 100.987C265.709 100.867 265.902 100.867 266.023 100.987C266.144 101.102 266.144 101.294 266.023 101.414C264.381 103.087 261.49 104.977 259.667 105.115C259.516 105.127 259.371 105.133 259.245 105.133L259.251 105.127Z" fill="#CC424C"/>
<path d="M313.03 110.308C312.891 110.308 312.77 110.218 312.734 110.08L309.801 97.8942C309.764 97.7318 309.861 97.5693 310.024 97.5332C310.187 97.4971 310.35 97.5934 310.386 97.7558L313.32 109.941C313.356 110.104 313.259 110.266 313.096 110.302C313.072 110.302 313.048 110.308 313.024 110.308H313.03Z" fill="#CC424C"/>
<path d="M310.416 193.741C310.416 193.741 310.386 193.741 310.374 193.741C310.211 193.717 310.096 193.566 310.121 193.398L313.724 168.058C313.748 167.896 313.905 167.781 314.068 167.805C314.231 167.83 314.346 167.98 314.322 168.148L310.718 193.488C310.694 193.639 310.567 193.747 310.422 193.747L310.416 193.741Z" fill="#4F4F4F"/>
<path d="M302.052 72.8679V77C297.415 79.3556 292.406 77.7232 292.406 77.7232V76.0505L302.052 72.8679Z" fill="#FFBC96"/>
<path d="M302.052 68.8708V72.8678C302.052 72.8678 299.903 74.4779 297.339 75.2861C294.932 76.0504 292.406 76.0504 292.406 76.0504V72.423L302.052 68.8708Z" fill="#EAA07A"/>
<path d="M286.16 56.1593C286.16 56.1593 283.238 72.8742 292.752 73.7199C302.266 74.5657 302.36 68.2757 302.36 68.2757C302.36 68.2757 302.926 66.6781 303.491 66.6781C304.057 66.6781 308.11 66.1143 307.262 62.1674C306.413 58.2205 302.172 58.5964 302.172 61.9794L301.04 53.9039L286.154 56.1593H286.16Z" fill="#FFBC96"/>
<path d="M281.547 51.73C281.547 51.73 282.075 56.9862 290.684 57.0739C297 57.1366 298.923 56.0214 299.495 55.4263C299.589 55.3323 299.746 55.3949 299.746 55.5265C299.809 57.1679 300.092 62.6059 301.21 63.2762C302.53 64.0656 301.751 59.7365 303.856 59.5047C305.326 59.3419 307.211 60.6199 307.243 62.7938C307.268 64.4791 306.042 65.9326 304.421 66.4087L303.504 66.6405C303.504 66.6405 303.133 66.7721 303.114 66.7909C303.001 66.9099 302.655 67.3798 302.448 67.9248C302.278 68.3759 302.247 68.8771 302.128 69.2593C302.107 69.3303 302.094 69.3846 302.09 69.4221C302.084 69.4973 302.027 69.6101 302.002 69.986C301.964 70.5624 301.945 71.3142 301.945 71.6211C301.945 71.7339 302.052 71.8028 302.153 71.759C303.353 71.2077 309.637 68.119 309.844 61.7539C310.014 56.4475 309.21 55.019 308.789 54.6306C308.707 54.5554 308.738 54.4239 308.839 54.3863C310.347 53.8036 317.128 50.7213 314.331 43.0593C311.221 34.539 303.108 42.0444 302.674 47.8833C302.668 47.971 302.593 48.0336 302.511 48.0148C301.449 47.8457 295.228 46.9373 292.607 48.6037C292.582 48.6225 292.557 48.6288 292.526 48.6225C292.174 48.5912 289.792 48.3469 288.158 47.357C286.524 46.3672 284.545 48.2341 285.89 49.9006C285.984 50.0134 285.865 50.1825 285.72 50.1324C284.187 49.5936 280.636 48.6288 281.535 51.7362L281.547 51.73Z" fill="#333333"/>
<path d="M303.718 49.1095C304.759 49.8036 306.946 51.7123 307.362 53.7945M284.978 51.7123C286.887 53.1005 292.058 55.3562 297.471 53.274M288.622 49.6301C288.969 50.1506 290.288 51.0876 292.786 50.6712" stroke="#474747" stroke-linecap="round"/>
<path d="M295.517 62.7249C295.586 63.5206 295.165 64.2034 294.58 64.241C293.996 64.2786 293.462 63.6647 293.393 62.8565C293.324 62.0483 293.751 61.3717 294.335 61.3404C294.92 61.309 295.448 61.9293 295.51 62.7249H295.517Z" fill="#333333"/>
<path d="M297.188 59.8932C297.144 59.8932 297.094 59.8932 297.05 59.8681C297.031 59.8556 295.052 58.8845 292.764 60.125C292.651 60.1876 292.513 60.1438 292.45 60.031C292.387 59.9182 292.431 59.7804 292.544 59.7178C295.052 58.3583 297.17 59.4108 297.264 59.4546C297.377 59.511 297.421 59.6551 297.364 59.7679C297.327 59.8368 297.257 59.8807 297.188 59.8932Z" fill="#333333"/>
<path d="M289.654 62.7249C289.723 63.5206 289.302 64.2034 288.717 64.241C288.133 64.2786 287.599 63.6647 287.53 62.8565C287.461 62.0483 287.888 61.3717 288.472 61.3404C289.057 61.309 289.585 61.9293 289.648 62.7249H289.654Z" fill="#333333"/>
<path d="M285.638 61.1149C285.582 61.1023 285.525 61.071 285.487 61.0146C285.418 60.9081 285.443 60.764 285.55 60.6951C287.907 59.0913 290.125 59.9245 290.219 59.9621C290.339 60.006 290.395 60.1438 290.351 60.2628C290.307 60.3819 290.169 60.4383 290.05 60.3944C290.031 60.3881 287.963 59.6175 285.814 61.0773C285.764 61.1149 285.701 61.1274 285.638 61.1149Z" fill="#333333"/>
<path d="M290.986 67.6178C290.986 67.6178 290.929 67.6178 290.898 67.599C290.037 67.2482 289.547 66.8284 289.402 66.321C289.214 65.6569 289.673 65.0367 290.012 64.5856C290.131 64.4227 290.251 64.2661 290.295 64.1596C290.496 63.6709 290.351 61.9794 290.282 61.3654C290.27 61.2401 290.358 61.1211 290.483 61.1086C290.615 61.096 290.728 61.1837 290.741 61.309C290.766 61.5471 291.005 63.6396 290.722 64.3287C290.659 64.4854 290.534 64.6545 290.383 64.855C290.087 65.2497 289.723 65.7446 289.849 66.1894C289.949 66.5465 290.364 66.8786 291.074 67.1668C291.193 67.2169 291.25 67.3484 291.2 67.4675C291.162 67.5552 291.074 67.6116 290.986 67.6116V67.6178Z" fill="#EA877A"/>
<path d="M289.66 69.6288L294.015 68.8708C294.015 68.8708 294.241 70.65 291.916 71.0948C290.138 71.4331 289.66 69.6288 289.66 69.6288Z" fill="#F8F9FB"/>
<path d="M303.328 64.9615C303.271 64.9615 303.221 64.9552 303.164 64.9427C302.919 64.88 302.725 64.6858 302.586 64.3663C302.109 63.2198 302.492 62.0796 303.768 60.883C304.076 60.5886 304.44 60.4633 304.823 60.5134C305.735 60.6387 306.426 61.7476 306.508 61.8729C306.596 62.0232 306.552 62.2112 306.401 62.3052C306.25 62.3929 306.061 62.349 305.967 62.1987C305.804 61.9293 305.263 61.2088 304.735 61.1336C304.547 61.1086 304.377 61.1712 304.201 61.3341C303.12 62.349 302.794 63.2324 303.164 64.122C303.227 64.2786 303.29 64.3287 303.315 64.335C303.34 64.3413 303.416 64.3225 303.548 64.216C303.812 64.003 303.944 63.6396 303.893 63.2762C303.893 63.27 303.893 63.2637 303.893 63.2574C303.862 63.295 303.831 63.3514 303.793 63.4203C303.711 63.5769 303.523 63.6333 303.372 63.5519C303.215 63.4704 303.158 63.2825 303.24 63.1321C303.46 62.7124 303.755 62.4931 304.044 62.5495C304.195 62.5745 304.459 62.6936 304.528 63.1948C304.604 63.7712 304.39 64.3475 303.956 64.7046C303.743 64.88 303.535 64.9615 303.34 64.9615H303.328Z" fill="#EA877A"/>
<path d="M292.965 74.0395C292.84 74.0395 292.764 74.0395 292.746 74.0395C292.57 74.0395 292.438 73.8891 292.438 73.72C292.438 73.5445 292.588 73.4004 292.758 73.413C292.802 73.413 296.975 73.5069 299.633 71.8906C299.777 71.8029 299.972 71.8467 300.066 71.9971C300.154 72.1475 300.11 72.3354 299.96 72.4294C297.471 73.9392 293.896 74.0457 292.959 74.0457L292.965 74.0395Z" fill="#EA877A"/>
<defs>
<clipPath id="clip0_196_6167">
<rect width="177" height="171" fill="white" transform="translate(40 64)"/>
</clipPath>
</defs>
</svg>
